<svg width="15" height="16" viewBox="0 0 15 16" fill="none" xmlns="http://www.w3.org/2000/svg"><path d="M12.4584 9.41699H13.8751C14.0629 9.41699 14.2431 9.34236 14.3759 9.20953C14.5088 9.07669 14.5834 8.89652 14.5834 8.70866C14.5834 8.5208 14.5088 8.34063 14.3759 8.20779C14.2431 8.07495 14.0629 8.00033 13.8751 8.00033H12.4584V7.29199C12.4522 6.96567 12.4021 6.64167 12.3097 6.32866C12.9755 6.07339 13.5487 5.62309 13.9544 5.03668C14.3601 4.45026 14.5793 3.75505 14.5834 3.04199C14.5834 2.85413 14.5088 2.67396 14.3759 2.54113C14.2431 2.40829 14.0629 2.33366 13.8751 2.33366C13.6872 2.33366 13.5071 2.40829 13.3742 2.54113C13.2414 2.67396 13.1667 2.85413 13.1667 3.04199C13.1661 3.49876 13.0183 3.94316 12.7453 4.30934C12.4723 4.67552 12.0885 4.94397 11.6509 5.07491C11.3016 4.62722 10.8497 4.2701 10.3334 4.03366C10.3407 3.93936 10.3407 3.84463 10.3334 3.75033C10.3334 2.99888 10.0349 2.27821 9.50355 1.74686C8.9722 1.2155 8.25153 0.916992 7.50008 0.916992C6.74863 0.916992 6.02797 1.2155 5.49661 1.74686C4.96526 2.27821 4.66675 2.99888 4.66675 3.75033C4.65942 3.84463 4.65942 3.93936 4.66675 4.03366C4.14019 4.26622 3.67824 4.62361 3.32091 5.07491C2.8886 4.93896 2.51108 4.66835 2.24347 4.30262C1.97586 3.93689 1.83218 3.49518 1.83341 3.04199C1.83341 2.85413 1.75879 2.67396 1.62595 2.54113C1.49311 2.40829 1.31294 2.33366 1.12508 2.33366C0.93722 2.33366 0.757052 2.40829 0.624214 2.54113C0.491376 2.67396 0.416748 2.85413 0.416748 3.04199C0.420832 3.75505 0.640061 4.45026 1.04575 5.03668C1.45144 5.62309 2.02469 6.07339 2.6905 6.32866C2.59804 6.64167 2.54801 6.96567 2.54175 7.29199V8.00033H1.12508C0.93722 8.00033 0.757052 8.07495 0.624214 8.20779C0.491376 8.34063 0.416748 8.5208 0.416748 8.70866C0.416748 8.89652 0.491376 9.07669 0.624214 9.20953C0.757052 9.34236 0.93722 9.41699 1.12508 9.41699H2.54175V10.1253C2.54236 10.4536 2.57558 10.7811 2.64091 11.1028C1.98661 11.365 1.42544 11.8165 1.02921 12.3995C0.632987 12.9825 0.419734 13.6704 0.416748 14.3753C0.416748 14.5632 0.491376 14.7434 0.624214 14.8762C0.757052 15.009 0.93722 15.0837 1.12508 15.0837C1.31294 15.0837 1.49311 15.009 1.62595 14.8762C1.75879 14.7434 1.83341 14.5632 1.83341 14.3753C1.83533 13.9622 1.95762 13.5586 2.18532 13.2139C2.41303 12.8692 2.73627 12.5984 3.1155 12.4345C3.53675 13.2322 4.16766 13.8999 4.94028 14.3657C5.7129 14.8314 6.59794 15.0776 7.50008 15.0776C8.40222 15.0776 9.28726 14.8314 10.0599 14.3657C10.8325 13.8999 11.4634 13.2322 11.8847 12.4345C12.2639 12.5984 12.5871 12.8692 12.8148 13.2139C13.0425 13.5586 13.1648 13.9622 13.1667 14.3753C13.1667 14.5632 13.2414 14.7434 13.3742 14.8762C13.5071 15.009 13.6872 15.0837 13.8751 15.0837C14.0629 15.0837 14.2431 15.009 14.3759 14.8762C14.5088 14.7434 14.5834 14.5632 14.5834 14.3753C14.5804 13.6704 14.3672 12.9825 13.971 12.3995C13.5747 11.8165 13.0135 11.365 12.3592 11.1028C12.4246 10.7811 12.4578 10.4536 12.4584 10.1253V9.41699ZM6.79175 13.5962C5.99178 13.4329 5.2728 12.9982 4.75649 12.3657C4.24018 11.7332 3.95825 10.9418 3.95842 10.1253V7.29199C3.95842 6.72841 4.1823 6.18791 4.58081 5.78939C4.97933 5.39088 5.51983 5.16699 6.08342 5.16699H6.79175V13.5962ZM6.08342 3.75033C6.08342 3.3746 6.23267 3.01427 6.49835 2.74859C6.76402 2.48291 7.12436 2.33366 7.50008 2.33366C7.87581 2.33366 8.23614 2.48291 8.50182 2.74859C8.76749 3.01427 8.91675 3.3746 8.91675 3.75033H6.08342ZM11.0417 10.1253C11.0419 10.9418 10.76 11.7332 10.2437 12.3657C9.72736 12.9982 9.00838 13.4329 8.20842 13.5962V5.16699H8.91675C9.48033 5.16699 10.0208 5.39088 10.4194 5.78939C10.8179 6.18791 11.0417 6.72841 11.0417 7.29199V10.1253Z" fill="#002060"></path></svg>