<svg xmlns="http://www.w3.org/2000/svg" width="18" height="18" viewBox="0 0 18 18" fill="none">
<path d="M8.43685 13.166H9.68685V9.70768H13.166V8.45768H9.68685V4.83268H8.43685V8.45768H4.83268V9.70768H8.43685V13.166ZM8.99935 17.3327C7.86046 17.3327 6.78407 17.1139 5.77018 16.6764C4.75629 16.2389 3.87088 15.6417 3.11393 14.8848C2.35699 14.1278 1.75977 13.2424 1.32227 12.2285C0.884766 11.2146 0.666016 10.1313 0.666016 8.97852C0.666016 7.83963 0.884766 6.76324 1.32227 5.74935C1.75977 4.73546 2.35699 3.85352 3.11393 3.10352C3.87088 2.35352 4.75629 1.75977 5.77018 1.32227C6.78407 0.884766 7.8674 0.666016 9.02018 0.666016C10.1591 0.666016 11.2355 0.884766 12.2493 1.32227C13.2632 1.75977 14.1452 2.35352 14.8952 3.10352C15.6452 3.85352 16.2389 4.73546 16.6764 5.74935C17.1139 6.76324 17.3327 7.84657 17.3327 8.99935C17.3327 10.1382 17.1139 11.2146 16.6764 12.2285C16.2389 13.2424 15.6452 14.1278 14.8952 14.8848C14.1452 15.6417 13.2632 16.2389 12.2493 16.6764C11.2355 17.1139 10.1521 17.3327 8.99935 17.3327ZM9.02018 16.0827C10.9785 16.0827 12.6452 15.3917 14.0202 14.0098C15.3952 12.6278 16.0827 10.9507 16.0827 8.97852C16.0827 7.02018 15.3952 5.35352 14.0202 3.97852C12.6452 2.60352 10.9716 1.91602 8.99935 1.91602C7.04102 1.91602 5.37088 2.60352 3.98893 3.97852C2.60699 5.35352 1.91602 7.02713 1.91602 8.99935C1.91602 10.9577 2.60699 12.6278 3.98893 14.0098C5.37088 15.3917 7.04796 16.0827 9.02018 16.0827Z" fill="#B5B7C0"/>
</svg>