
<svg width="24" height="24" viewBox="0 0 24 24" fill="none" xmlns="http://www.w3.org/2000/svg">
<path d="M15.3508 4.54173C15.2643 4.54173 15.1766 4.51556 15.1023 4.46124C14.9218 4.32958 14.8872 4.08265 15.0245 3.90991C15.7022 3.05851 15.7022 1.86907 15.0245 1.01766C14.887 0.844928 14.9218 0.598167 15.1023 0.466335C15.2828 0.334502 15.5407 0.367962 15.6778 0.540694C16.579 1.67281 16.579 3.25459 15.6778 4.3867C15.5972 4.48822 15.4749 4.54171 15.3508 4.54171L15.3508 4.54173Z" fill="#002060"/>
<path d="M8.52454 4.68647C8.39506 4.68647 8.26785 4.62801 8.18796 4.51904L8.06666 4.35326C7.23407 3.21733 7.26526 1.71225 8.14359 0.608281L8.19753 0.540544C8.33502 0.368308 8.59276 0.334356 8.77306 0.466184C8.95353 0.597847 8.98816 0.844608 8.85085 1.01751L8.7969 1.08525C8.13611 1.91546 8.11294 3.04723 8.73895 3.90165L8.8606 4.0676C8.99078 4.24547 8.9457 4.49074 8.76018 4.61528C8.68831 4.6633 8.60599 4.68649 8.52454 4.68649V4.68647Z" fill="#002060"/>
<path d="M5.21438 8.07945H5.21055L4.70412 8.07482C3.2969 8.0619 2.14394 6.9561 2.13387 5.61034L2.13282 5.48713C2.13108 5.26985 2.31347 5.09248 2.54041 5.09082C2.77082 5.09446 2.95251 5.26388 2.95443 5.481L2.95547 5.60438C2.96243 6.52418 3.75028 7.27956 4.71234 7.28816L5.21859 7.2928C5.44553 7.29479 5.62774 7.47266 5.62565 7.68994C5.62304 7.9059 5.43943 8.07946 5.21441 8.07946L5.21438 8.07945Z" fill="#002060"/>
<path d="M18.9029 8.05492C18.676 8.05492 18.4922 7.87887 18.4922 7.66176C18.4922 7.44447 18.676 7.26859 18.9029 7.26859C19.8733 7.26859 20.669 6.51372 20.6765 5.58583L20.6772 5.48133C20.6787 5.26504 20.8625 5.09082 21.0879 5.09082H21.0909C21.3178 5.09248 21.5002 5.26985 21.4986 5.48697L21.4979 5.59163C21.4869 6.94981 20.323 8.05496 18.9029 8.05496L18.9029 8.05492Z" fill="#002060"/>
<path d="M2.21914 20.9969H2.21688C1.98994 20.9956 1.80721 20.8186 1.8086 20.6013L1.81086 20.2119C1.82009 18.8516 2.98454 17.7451 4.4062 17.7451H4.81727C5.04421 17.7451 5.22798 17.9212 5.22798 18.1383C5.22798 18.3556 5.04421 18.5314 4.81727 18.5314H4.4062C3.43443 18.5314 2.63891 19.2873 2.63249 20.2165L2.63023 20.6057C2.62849 20.8222 2.44506 20.9969 2.21917 20.9969L2.21914 20.9969Z" fill="#002060"/>
<path d="M21.6559 20.9985C21.4304 20.9985 21.2468 20.8241 21.2452 20.6079L21.2424 20.2177C21.2358 19.2889 20.44 18.5334 19.4687 18.5334H19.3092C19.0822 18.5334 18.8984 18.3573 18.8984 18.1402C18.8984 17.9229 19.0822 17.7471 19.3092 17.7471H19.4687C20.89 17.7471 22.0541 18.8532 22.0641 20.2125L22.0669 20.6027C22.0684 20.82 21.8859 20.9972 21.6589 20.9987C21.6579 20.9985 21.6567 20.9985 21.656 20.9985L21.6559 20.9985Z" fill="#002060"/>
<path d="M1.03925 14.6478C0.957635 14.6478 0.874968 14.6246 0.803266 14.5761C0.617747 14.451 0.573195 14.2056 0.703893 14.0282C1.21103 13.3384 2.04237 12.9268 2.92749 12.9268H3.82374C4.05068 12.9268 4.23446 13.1028 4.23446 13.3199C4.23446 13.5372 4.05068 13.7131 3.82374 13.7131H2.92749C2.30915 13.7131 1.72895 14.0001 1.37583 14.4808C1.29525 14.5896 1.16821 14.6478 1.03925 14.6478L1.03925 14.6478Z" fill="#002060"/>
<path d="M23.2177 14.6476C23.1075 14.6476 22.9977 14.6054 22.9168 14.5219L22.6944 14.2926C22.3373 13.9244 21.8296 13.7131 21.3018 13.7131H20.2945C20.0676 13.7131 19.8838 13.537 19.8838 13.3199C19.8838 13.1026 20.0676 12.9268 20.2945 12.9268H21.3018C22.0573 12.9268 22.7842 13.2297 23.2964 13.7575L23.5188 13.9869C23.673 14.146 23.6634 14.3949 23.4972 14.5428C23.4182 14.6127 23.318 14.6476 23.2177 14.6476L23.2177 14.6476Z" fill="#002060"/>
<path d="M17.9876 6.31177L18.0741 6.26142C16.5417 4.40144 14.4114 3.24512 12.0582 3.24512C9.69365 3.24512 7.55444 4.41302 6.02051 6.2889C9.66558 8.42514 14.3148 8.44616 17.9872 6.31175L17.9876 6.31177Z" fill="#002060"/>
<path d="M18.5591 6.89941L18.4141 6.98355C16.552 8.0658 14.4546 8.62972 12.3488 8.68221L12.3486 23.3858C16.8693 23.2024 20.5003 18.759 20.5003 13.3196C20.5003 10.8816 19.771 8.64363 18.5594 6.89943L18.5591 6.89941Z" fill="#002060"/>
<path d="M11.527 8.67659C9.43792 8.59627 7.36923 8.01164 5.53965 6.92676C4.33969 8.66718 3.61816 10.8943 3.61816 13.3193C3.61816 18.6613 7.11987 23.0434 11.5271 23.3724L11.527 8.67659Z" fill="#002060"/>
</svg>
