
<svg width="23" height="23" viewBox="0 0 23 23" fill="none" xmlns="http://www.w3.org/2000/svg">
<path d="M18.2562 14.1917C18.1449 14.1817 18.0328 14.195 17.9269 14.2309C17.8211 14.2668 17.724 14.3245 17.6417 14.4001L14.9752 16.7972C14.9098 16.858 14.8236 16.8914 14.7344 16.8906H12.8944C12.8127 17.1986 12.6319 17.471 12.3798 17.6659C12.1278 17.8608 11.8186 17.9672 11.5 17.9687H8.625V17.25H11.5C11.6888 17.25 11.87 17.1758 12.0045 17.0433C12.1389 16.9108 12.2159 16.7308 12.2188 16.542V16.4917C12.1975 16.3014 12.1055 16.126 11.9611 16.0002C11.8167 15.8744 11.6303 15.8074 11.4389 15.8125H8.74359C8.5104 15.813 8.28356 15.8886 8.09672 16.0281L7.42828 16.5312C7.11635 16.7628 6.73863 16.8887 6.35016 16.8906H5.03125V20.4844H10.7273L14.1989 19.4422L18.7881 15.5645C18.9225 15.4214 19.0005 15.2344 19.0078 15.0383C19.015 14.8421 18.9511 14.6499 18.8277 14.4972C18.7588 14.4094 18.6724 14.337 18.5741 14.2844C18.4757 14.2318 18.3675 14.2002 18.2562 14.1917Z" fill="#ffffff"/>
<path d="M4.3125 15.8125H2.875V21.5625H4.3125V15.8125Z" fill="#ffffff"/>
<path d="M6.53533 4.47494C6.29993 4.5948 6.1021 4.77722 5.96358 5.00215C5.82505 5.22708 5.75119 5.48584 5.7501 5.75C5.75064 5.90679 5.77736 6.06238 5.82916 6.21036C6.03607 6.14458 6.25174 6.11053 6.46885 6.10938V6.82813C6.2409 6.82729 6.01618 6.88193 5.81407 6.98733C5.52757 7.1347 5.29888 7.37404 5.1647 7.66695C5.03053 7.95986 4.99864 8.28935 5.07415 8.60256C5.14966 8.91576 5.3282 9.19452 5.58112 9.3941C5.83404 9.59368 6.14667 9.70251 6.46885 9.70313C6.51665 9.70313 6.55546 9.69235 6.60002 9.68839C6.75064 9.27201 7.0258 8.91209 7.38811 8.65754C7.75042 8.40299 8.18231 8.26616 8.6251 8.26563V8.98438C8.34079 8.98438 8.06286 9.06869 7.82647 9.22664C7.59007 9.38459 7.40582 9.6091 7.29702 9.87177C7.18822 10.1344 7.15975 10.4235 7.21522 10.7023C7.27069 10.9812 7.4076 11.2373 7.60863 11.4383C7.80967 11.6394 8.06581 11.7763 8.34466 11.8318C8.6235 11.8872 8.91254 11.8588 9.17521 11.75C9.43787 11.6412 9.66238 11.4569 9.82034 11.2205C9.97829 10.9841 10.0626 10.7062 10.0626 10.4219V3.95313C10.0626 3.66882 9.97829 3.39089 9.82034 3.1545C9.66238 2.9181 9.43787 2.73385 9.17521 2.62505C8.91254 2.51625 8.6235 2.48778 8.34466 2.54325C8.06581 2.59871 7.80967 2.73562 7.60863 2.93666C7.4076 3.1377 7.27069 3.39384 7.21522 3.67269C7.15975 3.95153 7.18822 4.24057 7.29702 4.50324C7.40582 4.7659 7.59007 4.99041 7.82647 5.14837C8.06286 5.30632 8.34079 5.39063 8.6251 5.39063V6.10938C8.14451 6.10853 7.67795 5.94729 7.29939 5.65121C6.92084 5.35514 6.65194 4.94117 6.53533 4.47494ZM14.3751 11.8594C14.7563 11.8594 15.122 11.7079 15.3916 11.4383C15.6611 11.1688 15.8126 10.8031 15.8126 10.4219C15.8126 10.0406 15.6611 9.675 15.3916 9.40541C15.122 9.13583 14.7563 8.98438 14.3751 8.98438V8.26563C14.8179 8.26616 15.2498 8.40299 15.6121 8.65754C15.9744 8.91209 16.2496 9.27201 16.4002 9.68839C16.4447 9.69235 16.4836 9.70313 16.5313 9.70313C16.8532 9.70254 17.1655 9.59395 17.4184 9.39476C17.6712 9.19557 17.8498 8.9173 17.9257 8.60452C18.0016 8.29174 17.9703 7.96254 17.8368 7.66965C17.7034 7.37676 17.4755 7.13713 17.1897 6.98913C16.9866 6.88272 16.7606 6.82746 16.5313 6.82813V6.10938C16.7485 6.11044 16.9642 6.14449 17.171 6.21036C17.2229 6.0624 17.2496 5.90679 17.2501 5.75C17.249 5.48584 17.1751 5.22708 17.0366 5.00215C16.8981 4.77722 16.7003 4.5948 16.4649 4.47494C16.3483 4.94117 16.0794 5.35514 15.7008 5.65121C15.3222 5.94729 14.8557 6.10853 14.3751 6.10938V5.39063C14.6594 5.39063 14.9373 5.30632 15.1737 5.14837C15.4101 4.99041 15.5944 4.7659 15.7032 4.50324C15.812 4.24057 15.8404 3.95153 15.785 3.67269C15.7295 3.39384 15.5926 3.1377 15.3916 2.93666C15.1905 2.73562 14.9344 2.59871 14.6555 2.54325C14.3767 2.48778 14.0877 2.51625 13.825 2.62505C13.5623 2.73385 13.3378 2.9181 13.1799 3.1545C13.0219 3.39089 12.9376 3.66882 12.9376 3.95313V10.4219C12.9376 10.8031 13.089 11.1688 13.3586 11.4383C13.6282 11.7079 13.9938 11.8594 14.3751 11.8594ZM2.15635 8.26563C2.37878 8.265 2.59558 8.19559 2.77701 8.06692C2.95845 7.93824 3.09564 7.75659 3.16979 7.54688H4.43838C4.52792 7.27948 4.67375 7.03439 4.86604 6.82813H3.16979C3.10386 6.64166 2.9879 6.47691 2.83462 6.35193C2.68133 6.22694 2.49661 6.14654 2.30069 6.1195C2.10476 6.09247 1.90517 6.11985 1.72377 6.19865C1.54236 6.27745 1.38613 6.40464 1.27216 6.56629C1.1582 6.72794 1.0909 6.91782 1.07763 7.11516C1.06435 7.3125 1.10562 7.50968 1.19691 7.68514C1.2882 7.86059 1.426 8.00755 1.59522 8.10994C1.76444 8.21232 1.95857 8.26618 2.15635 8.26563ZM6.75994 11.5C6.62787 11.2795 6.53998 11.0354 6.50119 10.7813H5.03135C4.97216 10.7816 4.91396 10.7965 4.86192 10.8247C4.80988 10.8529 4.76562 10.8935 4.73307 10.943L4.11854 11.8594H3.16979C3.08501 11.6196 2.9182 11.4175 2.69883 11.2888C2.47947 11.1601 2.22167 11.1131 1.97101 11.1562C1.72034 11.1992 1.49296 11.3294 1.32903 11.5238C1.1651 11.7183 1.0752 11.9644 1.0752 12.2188C1.0752 12.4731 1.1651 12.7192 1.32903 12.9137C1.49296 13.1081 1.72034 13.2383 1.97101 13.2814C2.22167 13.3244 2.47947 13.2774 2.69883 13.1487C2.9182 13.02 3.08501 12.8179 3.16979 12.5781H4.3126C4.37179 12.5778 4.42999 12.5629 4.48203 12.5347C4.53406 12.5065 4.57832 12.4658 4.61088 12.4164L5.22541 11.5H6.75994ZM2.15635 3.23438C2.37878 3.23375 2.59558 3.16434 2.77701 3.03567C2.95845 2.90699 3.09564 2.72534 3.16979 2.51563H4.11854L4.73307 3.43203C4.76562 3.48147 4.80988 3.5221 4.86192 3.55031C4.91396 3.57852 4.97216 3.59345 5.03135 3.59375H6.50119C6.53998 3.33965 6.62787 3.09552 6.75994 2.875H5.22541L4.61088 1.9586C4.57832 1.90916 4.53406 1.86853 4.48203 1.84032C4.42999 1.81211 4.37179 1.79718 4.3126 1.79688H3.16979C3.10386 1.61041 2.9879 1.44566 2.83462 1.32068C2.68133 1.19569 2.49661 1.11528 2.30069 1.08825C2.10476 1.06122 1.90517 1.0886 1.72377 1.1674C1.54236 1.2462 1.38613 1.37339 1.27216 1.53504C1.1582 1.69669 1.0909 1.88657 1.07763 2.08391C1.06435 2.28125 1.10562 2.47843 1.19691 2.65389C1.2882 2.82934 1.426 2.9763 1.59522 3.07869C1.76444 3.18107 1.95857 3.23493 2.15635 3.23438ZM20.8438 11.1406C20.6214 11.1413 20.4046 11.2107 20.2232 11.3393C20.0417 11.468 19.9046 11.6497 19.8304 11.8594H18.8817L18.2671 10.943C18.2346 10.8935 18.1903 10.8529 18.1383 10.8247C18.0862 10.7965 18.028 10.7816 17.9688 10.7813H16.499C16.4602 11.0354 16.3723 11.2795 16.2403 11.5H17.7748L18.3893 12.4164C18.4219 12.4658 18.4661 12.5065 18.5182 12.5347C18.5702 12.5629 18.6284 12.5778 18.6876 12.5781H19.8304C19.8963 12.7646 20.0123 12.9293 20.1656 13.0543C20.3189 13.1793 20.5036 13.2597 20.6995 13.2868C20.8954 13.3138 21.095 13.2864 21.2764 13.2076C21.4578 13.1288 21.6141 13.0016 21.728 12.84C21.842 12.6783 21.9093 12.4884 21.9226 12.2911C21.9358 12.0938 21.8946 11.8966 21.8033 11.7211C21.712 11.5457 21.5742 11.3987 21.405 11.2963C21.2358 11.1939 21.0416 11.1401 20.8438 11.1406ZM20.8438 6.10938C20.6214 6.11 20.4046 6.17941 20.2232 6.30809C20.0417 6.43677 19.9046 6.61841 19.8304 6.82813H18.1342L18.5618 7.54688H19.8304C19.8963 7.73335 20.0123 7.89809 20.1656 8.02308C20.3189 8.14806 20.5036 8.22847 20.6995 8.2555C20.8954 8.28254 21.095 8.25516 21.2764 8.17635C21.4578 8.09755 21.6141 7.97037 21.728 7.80872C21.842 7.64707 21.9093 7.45718 21.9226 7.25984C21.9358 7.06251 21.8946 6.86532 21.8033 6.68987C21.712 6.51441 21.5742 6.36745 21.405 6.26507C21.2358 6.16268 21.0416 6.10882 20.8438 6.10938ZM17.9688 3.59375C18.028 3.59345 18.0862 3.57852 18.1383 3.55031C18.1903 3.5221 18.2346 3.48147 18.2671 3.43203L18.8817 2.51563H19.8304C19.9152 2.75541 20.082 2.9575 20.3014 3.08618C20.5207 3.21487 20.7785 3.26186 21.0292 3.21885C21.2799 3.17584 21.5072 3.04561 21.6712 2.85116C21.8351 2.65671 21.925 2.41058 21.925 2.15625C21.925 1.90193 21.8351 1.65579 21.6712 1.46134C21.5072 1.2669 21.2799 1.13666 21.0292 1.09365C20.7785 1.05065 20.5207 1.09764 20.3014 1.22632C20.082 1.35501 19.9152 1.5571 19.8304 1.79688H18.6876C18.6284 1.79718 18.5702 1.81211 18.5182 1.84032C18.4661 1.86853 18.4219 1.90916 18.3893 1.9586L17.7748 2.875H16.2403C16.3723 3.09552 16.4602 3.33965 16.499 3.59375H17.9688Z" fill="#ffffff"/>
</svg>
