
<svg width="24" height="24" viewBox="0 0 24 24" fill="none" xmlns="http://www.w3.org/2000/svg">
<path d="M16.7964 0.356445H7.15456C2.96647 0.356445 0.469727 2.85195 0.469727 7.03795V16.6634C0.469727 20.8609 2.96647 23.3564 7.15456 23.3564H16.7849C20.9729 23.3564 23.4697 20.8609 23.4697 16.6749V7.03795C23.4812 2.85195 20.9845 0.356445 16.7964 0.356445ZM17.7283 17.8939H6.22259C5.75086 17.8939 5.35966 17.5029 5.35966 17.0314C5.35966 16.5599 5.75086 16.1689 6.22259 16.1689H17.7283C18.2001 16.1689 18.5913 16.5599 18.5913 17.0314C18.5913 17.5029 18.2001 17.8939 17.7283 17.8939ZM17.7283 12.7189H6.22259C5.75086 12.7189 5.35966 12.3279 5.35966 11.8564C5.35966 11.3849 5.75086 10.9939 6.22259 10.9939H17.7283C18.2001 10.9939 18.5913 11.3849 18.5913 11.8564C18.5913 12.3279 18.2001 12.7189 17.7283 12.7189ZM17.7283 7.54395H6.22259C5.75086 7.54395 5.35966 7.15295 5.35966 6.68145C5.35966 6.20995 5.75086 5.81895 6.22259 5.81895H17.7283C18.2001 5.81895 18.5913 6.20995 18.5913 6.68145C18.5913 7.15295 18.2001 7.54395 17.7283 7.54395Z" fill="#002060"/>
</svg>
