<svg xmlns="http://www.w3.org/2000/svg" width="24" height="24" viewBox="0 0 24 24" fill="none">
<path d="M7.81771 1.42969H3.98438C2.39656 1.42969 1.10938 2.71687 1.10938 4.30469V8.13802C1.10938 9.72584 2.39656 11.013 3.98438 11.013H7.81771C9.40553 11.013 10.6927 9.72584 10.6927 8.13802V4.30469C10.6927 2.71687 9.40553 1.42969 7.81771 1.42969Z" fill="#ffffff"/>
<path d="M19.3177 1.42969H15.4844C13.8966 1.42969 12.6094 2.71687 12.6094 4.30469V8.13802C12.6094 9.72584 13.8966 11.013 15.4844 11.013H19.3177C20.9055 11.013 22.1927 9.72584 22.1927 8.13802V4.30469C22.1927 2.71687 20.9055 1.42969 19.3177 1.42969Z" fill="#ffffff"/>
<path d="M7.81771 12.9297H3.98438C2.39656 12.9297 1.10938 14.2169 1.10938 15.8047V19.638C1.10938 21.2258 2.39656 22.513 3.98438 22.513H7.81771C9.40553 22.513 10.6927 21.2258 10.6927 19.638V15.8047C10.6927 14.2169 9.40553 12.9297 7.81771 12.9297Z" fill="#ffffff"/>
<path d="M19.3177 12.9297H15.4844C13.8966 12.9297 12.6094 14.2169 12.6094 15.8047V19.638C12.6094 21.2258 13.8966 22.513 15.4844 22.513H19.3177C20.9055 22.513 22.1927 21.2258 22.1927 19.638V15.8047C22.1927 14.2169 20.9055 12.9297 19.3177 12.9297Z" fill="#ffffff"/>
</svg>