
<svg width="23" height="24" viewBox="0 0 23 24" fill="none" xmlns="http://www.w3.org/2000/svg">
<path d="M16.3266 0.574219H6.68483C2.49674 0.574219 0 3.06972 0 7.25572V16.8812C0 21.0787 2.49674 23.5742 6.68483 23.5742H16.3151C20.5032 23.5742 23 21.0787 23 16.8927V7.25572C23.0115 3.06972 20.5147 0.574219 16.3266 0.574219ZM17.1205 11.5337C17.1205 11.9822 16.7639 12.3387 16.3151 12.3387C15.8664 12.3387 15.5097 11.9822 15.5097 11.5337V11.3267L12.3802 14.4547C12.2076 14.6272 11.9775 14.7077 11.7358 14.6847C11.4942 14.6617 11.2756 14.5352 11.1491 14.3282L9.97547 12.5802L7.23711 15.3172C7.07603 15.4782 6.88043 15.5472 6.67333 15.5472C6.46622 15.5472 6.25912 15.4667 6.10954 15.3172C5.79889 15.0067 5.79889 14.5007 6.10954 14.1787L9.53825 10.7517C9.71084 10.5792 9.94095 10.4987 10.1826 10.5217C10.4242 10.5447 10.6428 10.6712 10.7694 10.8782L11.943 12.6262L14.3707 10.1997H14.1636C13.7148 10.1997 13.3582 9.84322 13.3582 9.39472C13.3582 8.94622 13.7148 8.58972 14.1636 8.58972H16.3036C16.4072 8.58972 16.5107 8.61272 16.6143 8.64722C16.8099 8.72772 16.971 8.88872 17.0515 9.08422C17.0975 9.18772 17.109 9.29122 17.109 9.39472V11.5337H17.1205Z" fill="#002060"/>
</svg>
