
<svg width="24" height="24" viewBox="0 0 24 24" fill="none" xmlns="http://www.w3.org/2000/svg">
<path d="M6.21973 13.8906H1.29116C0.837493 13.8906 0.469727 14.2584 0.469727 14.7121V22.9263C0.469727 23.38 0.837493 23.7478 1.29116 23.7478H6.21973C6.67339 23.7478 7.04115 23.38 7.04115 22.9263V14.7121C7.04115 14.2584 6.67339 13.8906 6.21973 13.8906Z" fill="#002060"/>
<path d="M22.6484 7.32031H17.7199C17.2662 7.32031 16.8984 7.68808 16.8984 8.14174V22.9275C16.8984 23.3811 17.2662 23.7489 17.7199 23.7489H22.6484C23.1021 23.7489 23.4699 23.3811 23.4699 22.9275V8.14174C23.4699 7.68808 23.1021 7.32031 22.6484 7.32031Z" fill="#002060"/>
<path d="M14.4346 0.748047H9.506C9.05234 0.748047 8.68457 1.11581 8.68457 1.56948V22.9266C8.68457 23.3803 9.05234 23.748 9.506 23.748H14.4346C14.8882 23.748 15.256 23.3803 15.256 22.9266V1.56948C15.256 1.11581 14.8882 0.748047 14.4346 0.748047Z" fill="#002060"/>
</svg>
