<svg width="18" height="24" viewBox="0 0 18 24" fill="none" xmlns="http://www.w3.org/2000/svg">
<path d="M17.9346 8.56998C17.8228 8.33504 17.5851 8.18518 17.3242 8.18518H10.5462L14.6487 1.26272C14.7722 1.05442 14.7741 0.796027 14.6538 0.585928C14.5335 0.375828 14.3095 0.246004 14.0668 0.246094L8.27606 0.246723C8.03575 0.246813 7.8135 0.374031 7.69245 0.580986L0.09208 13.5717C-0.0298773 13.7801 -0.0307332 14.0376 0.0897823 14.2468C0.210298 14.456 0.433804 14.585 0.675781 14.585H7.4106L5.44901 22.4088C5.37224 22.7149 5.51888 23.0332 5.80181 23.1747C5.89832 23.2228 6.0018 23.2461 6.1043 23.2461C6.30235 23.2461 6.49644 23.1593 6.62826 22.9981L17.8479 9.28496C18.0128 9.08335 18.0466 8.80501 17.9346 8.56998Z" fill="#ffffff"/>
</svg>