
<svg width="20" height="20" viewBox="0 0 20 20" fill="none" xmlns="http://www.w3.org/2000/svg">
<path d="M4.11719 6.89258C5.42886 6.89258 6.49219 5.82925 6.49219 4.51758C6.49219 3.2059 5.42886 2.14258 4.11719 2.14258C2.80551 2.14258 1.74219 3.2059 1.74219 4.51758C1.74219 5.82925 2.80551 6.89258 4.11719 6.89258Z" stroke="#ffffff" stroke-width="1.5" stroke-linecap="round" stroke-linejoin="round"/>
<path d="M15.1953 12.4346C16.507 12.4346 17.5703 11.3712 17.5703 10.0596C17.5703 8.74789 16.507 7.68457 15.1953 7.68457C13.8836 7.68457 12.8203 8.74789 12.8203 10.0596C12.8203 11.3712 13.8836 12.4346 15.1953 12.4346Z" stroke="#ffffff" stroke-width="1.5" stroke-linecap="round" stroke-linejoin="round"/>
<path d="M4.11719 17.9766C5.42886 17.9766 6.49219 16.9132 6.49219 15.6016C6.49219 14.2899 5.42886 13.2266 4.11719 13.2266C2.80551 13.2266 1.74219 14.2899 1.74219 15.6016C1.74219 16.9132 2.80551 17.9766 4.11719 17.9766Z" stroke="#ffffff" stroke-width="1.5" stroke-linecap="round" stroke-linejoin="round"/>
<path d="M12.8255 10.0592H7.28385C5.54219 10.0592 4.11719 9.26758 4.11719 6.89258V13.2259" stroke="#ffffff" stroke-width="1.5" stroke-linecap="round" stroke-linejoin="round"/>
</svg>
