
<svg width="24" height="24" viewBox="0 0 24 24" fill="none" xmlns="http://www.w3.org/2000/svg">
<path d="M20.0197 3.42438H18.8697V1.23391C18.8697 0.943434 18.7486 0.664856 18.5329 0.459459C18.3172 0.254063 18.0247 0.138672 17.7197 0.138672C17.4147 0.138672 17.1222 0.254063 16.9066 0.459459C16.6909 0.664856 16.5697 0.943434 16.5697 1.23391V3.42438H7.36973V1.23391C7.36973 0.943434 7.24857 0.664856 7.0329 0.459459C6.81723 0.254063 6.52473 0.138672 6.21973 0.138672C5.91473 0.138672 5.62222 0.254063 5.40655 0.459459C5.19089 0.664856 5.06973 0.943434 5.06973 1.23391V3.42438H3.91973C3.00473 3.42438 2.12721 3.77056 1.48021 4.38675C0.833208 5.00294 0.469727 5.83867 0.469727 6.7101V7.80533H23.4697V6.7101C23.4697 5.83867 23.1062 5.00294 22.4592 4.38675C21.8122 3.77056 20.9347 3.42438 20.0197 3.42438Z" fill="#ffffff"/>
<path d="M0.469727 19.8537C0.469727 20.7251 0.833208 21.5608 1.48021 22.177C2.12721 22.7932 3.00473 23.1394 3.91973 23.1394H20.0197C20.9347 23.1394 21.8122 22.7932 22.4592 22.177C23.1062 21.5608 23.4697 20.7251 23.4697 19.8537V11.0918H0.469727V19.8537Z" fill="#ffffff"/>
</svg>
