<svg width="17" height="18" viewBox="0 0 17 18" fill="none" xmlns="http://www.w3.org/2000/svg" class="release-folder-view__icon" style="margin-right: 5px;"><path fill-rule="evenodd" clip-rule="evenodd" d="M8.33425 8.99299V16.9633L8.32894 16.9686L2.13031 14.3177L2.125 14.3087V6.33887L2.13031 6.34843L8.32841 8.99937L8.33425 8.99299Z" fill="#FCD062"></path><path fill-rule="evenodd" clip-rule="evenodd" d="M14.5435 6.33594L14.5382 6.3455L8.3396 8.99644V16.9663L14.5382 14.3153L14.5435 14.3058V6.33594Z" fill="#F8AA3A"></path><path fill-rule="evenodd" clip-rule="evenodd" d="M14.5377 6.33941L8.33962 3.68848H8.329L2.13037 6.33941V6.34579L8.32846 8.99673L14.5377 6.33941Z" fill="#F8C253"></path><path fill-rule="evenodd" clip-rule="evenodd" d="M2.125 6.34375L0 8.46875L6.21562 11.125L8.34062 9L2.125 6.34375ZM10.4656 1.5625L8.34062 3.6875L14.5562 6.34375L16.6812 4.21875L10.4656 1.5625ZM14.5562 6.34375L16.6812 8.46875L10.4656 11.125L8.34062 9L14.5562 6.34375ZM6.21562 1.5625L8.34062 3.6875L2.125 6.34375L0 4.21875L6.21562 1.5625Z" fill="#F8B84E"></path><path d="M7.80933 7.53906V3.28906H6.4812L8.34058 1.16406L10.2 3.28906H8.87183V7.53906H7.80933Z" fill="#F05542"></path></svg>