<svg xmlns="http://www.w3.org/2000/svg" width="20" height="21" viewBox="0 0 20 21" fill="none">
<path d="M19.6018 9.9255C17.4858 5.46791 14.2871 3.22461 9.99915 3.22461C5.70897 3.22461 2.51255 5.46791 0.396474 9.92773C0.311597 10.1075 0.267578 10.3038 0.267578 10.5025C0.267578 10.7013 0.311597 10.8976 0.396474 11.0773C2.51255 15.5349 5.71121 17.7782 9.99915 17.7782C14.2893 17.7782 17.4858 15.5349 19.6018 11.0751C19.7737 10.7134 19.7737 10.2938 19.6018 9.9255ZM9.99915 16.171C6.39871 16.171 3.76255 14.3451 1.90317 10.5014C3.76255 6.65765 6.39871 4.83175 9.99915 4.83175C13.5996 4.83175 16.2358 6.65765 18.0951 10.5014C16.238 14.3451 13.6018 16.171 9.99915 16.171ZM9.90987 6.57282C7.74022 6.57282 5.9813 8.33175 5.9813 10.5014C5.9813 12.671 7.74022 14.43 9.90987 14.43C12.0795 14.43 13.8384 12.671 13.8384 10.5014C13.8384 8.33175 12.0795 6.57282 9.90987 6.57282ZM9.90987 13.0014C8.52817 13.0014 7.40987 11.8831 7.40987 10.5014C7.40987 9.1197 8.52817 8.0014 9.90987 8.0014C11.2916 8.0014 12.4099 9.1197 12.4099 10.5014C12.4099 11.8831 11.2916 13.0014 9.90987 13.0014Z" fill="#949699" fill-opacity="0.85"/>
</svg>