<svg width="17" height="17" viewBox="0 0 17 17" fill="none" xmlns="http://www.w3.org/2000/svg" class="release-folder-view__icon" style="margin-right: 5px;"><path d="M0.283325 2.93262H16.15C16.3003 2.93262 16.4444 2.99745 16.5507 3.11286C16.657 3.22827 16.7167 3.38479 16.7167 3.548V15.2403C16.7167 15.4035 16.657 15.56 16.5507 15.6755C16.4444 15.7909 16.3003 15.8557 16.15 15.8557H0.849992C0.699703 15.8557 0.555569 15.7909 0.449298 15.6755C0.343027 15.56 0.283325 15.4035 0.283325 15.2403V2.93262Z" fill="#FFCC40"></path><path d="M0.283325 2.93262H16.15C16.3003 2.93262 16.4444 2.99745 16.5507 3.11286C16.657 3.22827 16.7167 3.38479 16.7167 3.548V3.85569H0.283325V2.93262Z" fill="#ED9B28"></path><path d="M5.94999 0.470703H0.849992C0.699703 0.470703 0.555569 0.535538 0.449298 0.650945C0.343027 0.766352 0.283325 0.922878 0.283325 1.08609V2.93224H7.36666L5.94999 0.470703Z" fill="#808080"></path><path d="M13.3167 14.0088H3.68335V15.8549H13.3167V14.0088Z" fill="#94E6FF"></path><path d="M16.15 2.62462H7.5225L6.19083 0.307702C6.16531 0.263359 6.12981 0.226812 6.08767 0.201508C6.04553 0.176205 5.99815 0.162982 5.95 0.163087H0.85C0.624566 0.163087 0.408365 0.260339 0.248959 0.43345C0.0895533 0.60656 0 0.841348 0 1.08616V15.24C0 15.4848 0.0895533 15.7196 0.248959 15.8927C0.408365 16.0658 0.624566 16.1631 0.85 16.1631H16.15C16.3754 16.1631 16.5916 16.0658 16.751 15.8927C16.9104 15.7196 17 15.4848 17 15.24V3.5477C17 3.30289 16.9104 3.0681 16.751 2.89499C16.5916 2.72188 16.3754 2.62462 16.15 2.62462ZM0.566667 1.08616C0.566667 1.00456 0.596518 0.926296 0.649653 0.868592C0.702788 0.810889 0.774855 0.778471 0.85 0.778471H5.79417L6.85667 2.62462H0.566667V1.08616ZM3.96667 15.5477V14.3169H13.0333V15.5477H3.96667ZM16.4333 15.24C16.4333 15.3216 16.4035 15.3999 16.3503 15.4576C16.2972 15.5153 16.2251 15.5477 16.15 15.5477H13.6V14.0092C13.6 13.9276 13.5701 13.8494 13.517 13.7917C13.4639 13.734 13.3918 13.7015 13.3167 13.7015H3.68333C3.60819 13.7015 3.53612 13.734 3.48299 13.7917C3.42985 13.8494 3.4 13.9276 3.4 14.0092V15.5477H0.85C0.774855 15.5477 0.702788 15.5153 0.649653 15.4576C0.596518 15.3999 0.566667 15.3216 0.566667 15.24V3.24001H16.15C16.2251 3.24001 16.2972 3.27243 16.3503 3.33013C16.4035 3.38783 16.4333 3.4661 16.4333 3.5477V15.24Z" fill="#0A1827"></path><path d="M2.24112 1.39453H1.98328C1.90814 1.39453 1.83607 1.42695 1.78294 1.48465C1.7298 1.54236 1.69995 1.62062 1.69995 1.70222C1.69995 1.78383 1.7298 1.86209 1.78294 1.91979C1.83607 1.9775 1.90814 2.00992 1.98328 2.00992H2.24112C2.31626 2.00992 2.38833 1.9775 2.44146 1.91979C2.4946 1.86209 2.52445 1.78383 2.52445 1.70222C2.52445 1.62062 2.4946 1.54236 2.44146 1.48465C2.38833 1.42695 2.31626 1.39453 2.24112 1.39453ZM3.52745 1.39453H3.27245C3.19731 1.39453 3.12524 1.42695 3.0721 1.48465C3.01897 1.54236 2.98912 1.62062 2.98912 1.70222C2.98912 1.78383 3.01897 1.86209 3.0721 1.91979C3.12524 1.9775 3.19731 2.00992 3.27245 2.00992H3.52745C3.6026 2.00992 3.67466 1.9775 3.7278 1.91979C3.78093 1.86209 3.81078 1.78383 3.81078 1.70222C3.81078 1.62062 3.78093 1.54236 3.7278 1.48465C3.67466 1.42695 3.6026 1.39453 3.52745 1.39453ZM4.81662 1.39453H4.55878C4.48364 1.39453 4.41157 1.42695 4.35844 1.48465C4.3053 1.54236 4.27545 1.62062 4.27545 1.70222C4.27545 1.78383 4.3053 1.86209 4.35844 1.91979C4.41157 1.9775 4.48364 2.00992 4.55878 2.00992H4.81662C4.89176 2.00992 4.96383 1.9775 5.01696 1.91979C5.0701 1.86209 5.09995 1.78383 5.09995 1.70222C5.09995 1.62062 5.0701 1.54236 5.01696 1.48465C4.96383 1.42695 4.89176 1.39453 4.81662 1.39453Z" fill="#0A1827"></path></svg>