<svg xmlns="http://www.w3.org/2000/svg" width="144" height="144" viewBox="0 0 144 144" fill="none">
<path d="M50.336 77H48.512L43.024 68.696V77H41.2V65.864H43.024L48.512 74.152V65.864H50.336V77ZM56.5553 77.144C55.7233 77.144 54.9713 76.9573 54.2993 76.584C53.6273 76.2 53.0993 75.6667 52.7153 74.984C52.3313 74.2907 52.1393 73.4907 52.1393 72.584C52.1393 71.688 52.3366 70.8933 52.7313 70.2C53.1259 69.5067 53.6646 68.9733 54.3473 68.6C55.0299 68.2267 55.7926 68.04 56.6353 68.04C57.4779 68.04 58.2406 68.2267 58.9233 68.6C59.6059 68.9733 60.1446 69.5067 60.5393 70.2C60.9339 70.8933 61.1313 71.688 61.1313 72.584C61.1313 73.48 60.9286 74.2747 60.5233 74.968C60.1179 75.6613 59.5633 76.2 58.8593 76.584C58.1659 76.9573 57.3979 77.144 56.5553 77.144ZM56.5553 75.56C57.0246 75.56 57.4619 75.448 57.8673 75.224C58.2833 75 58.6193 74.664 58.8753 74.216C59.1313 73.768 59.2593 73.224 59.2593 72.584C59.2593 71.944 59.1366 71.4053 58.8913 70.968C58.6459 70.52 58.3206 70.184 57.9153 69.96C57.5099 69.736 57.0726 69.624 56.6033 69.624C56.1339 69.624 55.6966 69.736 55.2913 69.96C54.8966 70.184 54.5819 70.52 54.3473 70.968C54.1126 71.4053 53.9953 71.944 53.9953 72.584C53.9953 73.5333 54.2353 74.2693 54.7153 74.792C55.2059 75.304 55.8193 75.56 56.5553 75.56ZM70.7226 65.88C71.9066 65.88 72.9413 66.1093 73.8266 66.568C74.7226 67.016 75.4106 67.6667 75.8906 68.52C76.3813 69.3627 76.6266 70.3493 76.6266 71.48C76.6266 72.6107 76.3813 73.592 75.8906 74.424C75.4106 75.256 74.7226 75.896 73.8266 76.344C72.9413 76.7813 71.9066 77 70.7226 77H67.0906V65.88H70.7226ZM70.7226 75.512C72.024 75.512 73.0213 75.16 73.7146 74.456C74.408 73.752 74.7546 72.76 74.7546 71.48C74.7546 70.1893 74.408 69.1813 73.7146 68.456C73.0213 67.7307 72.024 67.368 70.7226 67.368H68.9146V75.512H70.7226ZM77.8264 72.552C77.8264 71.6667 78.0077 70.8827 78.3704 70.2C78.7437 69.5173 79.245 68.9893 79.8744 68.616C80.5144 68.232 81.2184 68.04 81.9864 68.04C82.6797 68.04 83.2824 68.1787 83.7944 68.456C84.317 68.7227 84.733 69.0587 85.0424 69.464V68.184H86.8824V77H85.0424V75.688C84.733 76.104 84.3117 76.4507 83.7784 76.728C83.245 77.0053 82.637 77.144 81.9544 77.144C81.197 77.144 80.5037 76.952 79.8744 76.568C79.245 76.1733 78.7437 75.6293 78.3704 74.936C78.0077 74.232 77.8264 73.4373 77.8264 72.552ZM85.0424 72.584C85.0424 71.976 84.9144 71.448 84.6584 71C84.413 70.552 84.0877 70.2107 83.6824 69.976C83.277 69.7413 82.8397 69.624 82.3704 69.624C81.901 69.624 81.4637 69.7413 81.0584 69.976C80.653 70.2 80.3224 70.536 80.0664 70.984C79.821 71.4213 79.6984 71.944 79.6984 72.552C79.6984 73.16 79.821 73.6933 80.0664 74.152C80.3224 74.6107 80.653 74.9627 81.0584 75.208C81.4744 75.4427 81.9117 75.56 82.3704 75.56C82.8397 75.56 83.277 75.4427 83.6824 75.208C84.0877 74.9733 84.413 74.632 84.6584 74.184C84.9144 73.7253 85.0424 73.192 85.0424 72.584ZM91.4061 69.672V74.552C91.4061 74.8827 91.4808 75.1227 91.6301 75.272C91.7901 75.4107 92.0568 75.48 92.4301 75.48H93.5501V77H92.1101C91.2888 77 90.6595 76.808 90.2221 76.424C89.7848 76.04 89.5661 75.416 89.5661 74.552V69.672H88.5261V68.184H89.5661V65.992H91.4061V68.184H93.5501V69.672H91.4061ZM94.6233 72.552C94.6233 71.6667 94.8046 70.8827 95.1673 70.2C95.5406 69.5173 96.0419 68.9893 96.6713 68.616C97.3113 68.232 98.0153 68.04 98.7833 68.04C99.4766 68.04 100.079 68.1787 100.591 68.456C101.114 68.7227 101.53 69.0587 101.839 69.464V68.184H103.679V77H101.839V75.688C101.53 76.104 101.109 76.4507 100.575 76.728C100.042 77.0053 99.4339 77.144 98.7513 77.144C97.9939 77.144 97.3006 76.952 96.6713 76.568C96.0419 76.1733 95.5406 75.6293 95.1673 74.936C94.8046 74.232 94.6233 73.4373 94.6233 72.552ZM101.839 72.584C101.839 71.976 101.711 71.448 101.455 71C101.21 70.552 100.885 70.2107 100.479 69.976C100.074 69.7413 99.6366 69.624 99.1673 69.624C98.6979 69.624 98.2606 69.7413 97.8553 69.976C97.4499 70.2 97.1193 70.536 96.8633 70.984C96.6179 71.4213 96.4953 71.944 96.4953 72.552C96.4953 73.16 96.6179 73.6933 96.8633 74.152C97.1193 74.6107 97.4499 74.9627 97.8553 75.208C98.2713 75.4427 98.7086 75.56 99.1673 75.56C99.6366 75.56 100.074 75.4427 100.479 75.208C100.885 74.9733 101.21 74.632 101.455 74.184C101.711 73.7253 101.839 73.192 101.839 72.584Z" fill="black" fill-opacity="0.45"/>
<path d="M144 72C144 111.765 111.765 144 72 144C32.2355 144 0 111.765 0 72C0 32.2355 32.2355 0 72 0C111.765 0 144 32.2355 144 72ZM28.3942 72C28.3942 96.0828 47.9172 115.606 72 115.606C96.0828 115.606 115.606 96.0828 115.606 72C115.606 47.9172 96.0828 28.3942 72 28.3942C47.9172 28.3942 28.3942 47.9172 28.3942 72Z" fill="#D9D9D9"/>
</svg>