<svg width="17" height="18" viewBox="0 0 17 18" fill="none" xmlns="http://www.w3.org/2000/svg" class="release-folder-view__icon" style="margin-right: 5px;"><path d="M5.13946 15.4727C5.3939 15.7271 5.42217 16.1221 5.22427 16.4077L5.13946 16.5092L4.36337 17.2854C4.07714 17.5715 3.61307 17.5715 3.32682 17.2854C3.0724 17.0309 3.04413 16.6359 3.24202 16.3503L3.32682 16.2489L4.10293 15.4727C4.38916 15.1865 4.85323 15.1865 5.13946 15.4727ZM3.58356 13.9166C3.838 14.1711 3.86627 14.5661 3.66837 14.8517L3.58356 14.9532L1.64823 16.8886C1.362 17.1747 0.897926 17.1747 0.611681 16.8886C0.357254 16.6341 0.328984 16.2391 0.526872 15.9535L0.611681 15.852L2.54703 13.9166C2.83326 13.6303 3.29733 13.6303 3.58356 13.9166ZM14.8079 0.827668C15.6965 1.10748 16.3927 1.80356 16.6724 2.69223C17.4321 5.10473 16.8479 7.72981 15.1593 9.58984L14.9222 9.83865L14.0003 10.7605C14.5135 11.9528 14.3296 13.3732 13.4489 14.402L13.2634 14.6024L12.112 15.7538C11.8575 16.0083 11.4625 16.0366 11.1769 15.8387L11.0754 15.7538L9.8293 14.5077C9.17157 14.6798 8.44965 14.5426 7.89433 14.0959L7.71571 13.9355L7.47157 13.6913L6.79397 14.8236C6.67799 15.0174 6.47914 15.1468 6.25501 15.1745C6.0757 15.1967 5.89622 15.1518 5.74985 15.0511L5.64679 14.9653L2.53467 11.8533C2.37493 11.6935 2.29778 11.4691 2.32556 11.2449C2.34777 11.0655 2.43516 10.9024 2.5685 10.785L2.67682 10.7059L3.8091 10.0289L3.56456 9.78437C3.04906 9.26888 2.84303 8.56109 2.94647 7.89189L2.99241 7.67056L1.74653 6.42467C1.49211 6.17024 1.46384 5.7753 1.66172 5.48965L1.74653 5.38814L2.89796 4.23671C3.87169 3.26298 5.27845 2.98617 6.49837 3.40631L6.73967 3.49963L7.66144 2.57787C9.53119 0.70811 12.2857 0.03352 14.8079 0.827668ZM2.02731 12.3607C2.31354 12.647 2.31354 13.1111 2.02731 13.3973L1.25121 14.1733C0.964976 14.4596 0.500903 14.4596 0.214673 14.1733C-0.0715576 13.8872 -0.0715576 13.4231 0.214673 13.1368L0.990761 12.3607C1.27699 12.0745 1.74108 12.0745 2.02731 12.3607ZM12.8091 11.9517L11.0778 13.6831L11.5936 14.199L12.2268 13.5658C12.6686 13.1242 12.8627 12.5286 12.8091 11.9517ZM4.87796 11.0978L4.23606 11.4816L6.01879 13.2643L6.40283 12.6227L4.87796 11.0978ZM8.93791 3.3881L8.69799 3.61441L4.60111 7.71129C4.34668 7.96571 4.31841 8.36067 4.5163 8.64633L4.60111 8.74784L8.75226 12.899C9.00669 13.1533 9.40163 13.1816 9.68728 12.9838L9.78879 12.899L13.8857 8.8021C15.369 7.31874 15.9042 5.13344 15.2742 3.13248C15.1382 2.70039 14.7997 2.36193 14.3675 2.22588C12.4719 1.629 10.4109 2.07793 8.93791 3.3881ZM12.097 5.40319C13.0242 6.33046 13.0317 7.83523 12.1027 8.76418C11.1738 9.69312 9.66907 9.68561 8.74181 8.75835C7.81454 7.83108 7.80704 6.32631 8.73597 5.39736C9.66492 4.46841 11.1697 4.47593 12.097 5.40319ZM9.77252 6.43391C9.42094 6.78549 9.41864 7.3621 9.77836 7.7218C10.1381 8.08151 10.7147 8.07921 11.0662 7.72763C11.4179 7.37605 11.4201 6.79944 11.0604 6.43974C10.7007 6.08003 10.1241 6.08233 9.77252 6.43391ZM4.10699 5.11924L3.9345 5.27326L3.30135 5.9064L3.81712 6.42218L5.54842 4.6909C5.04368 4.64416 4.52471 4.78695 4.10699 5.11924Z" fill="#002060"></path></svg>